<svg width="1440" height="520" viewBox="0 0 1440 520" fill="none" xmlns="http://www.w3.org/2000/svg">
<path d="M120 0C53.7258 0 8.2466e-06 47.2306 0 77.7916V520H1440V77.7916C1440 47.2306 1386.27 0 1320 0C1253.73 0 1200 47.2306 1200 77.7916C1200 47.2306 1146.27 0 1080 0C1013.73 0 960 47.2306 960 77.7916C960 47.2306 906.274 0 840 0C773.726 0 720 47.2306 720 77.7916C720 47.2306 666.274 0 600 0C533.726 0 480 47.2306 480 77.7916C480 47.2306 426.274 0 360 0C293.726 0 240 47.2306 240 77.7916C240 47.2306 186.274 0 120 0Z" fill="#FF4E00"/>
</svg>
